<?xml version="1.0" standalone="no"?>
<!DOCTYPE svg PUBLIC "-//W3C//DTD SVG 20010904//EN"
 "http://www.w3.org/TR/2001/REC-SVG-20010904/DTD/svg10.dtd">
<svg version="1.0" xmlns="http://www.w3.org/2000/svg"
 width="400.000000pt" height="400.000000pt" viewBox="0 0 400.000000 400.000000"
 preserveAspectRatio="xMidYMid meet">

<g transform="translate(0.000000,400.000000) scale(0.100000,-0.100000)"
fill="#000000" stroke="none">
<path d="M2284 3939 c-12 -4 -34 -9 -50 -11 -16 -1 -35 -9 -43 -17 -9 -8 -27
-11 -48 -8 -18 3 -33 2 -33 -4 0 -5 -9 -9 -21 -9 -11 0 -17 5 -14 10 12 19 -4
10 -35 -20 -16 -16 -30 -36 -30 -44 0 -9 -6 -13 -13 -10 -10 3 -14 -5 -15 -27
0 -18 -6 -35 -12 -39 -8 -5 -7 -12 5 -24 15 -15 15 -16 -3 -16 -10 0 -30 -10
-44 -22 -14 -13 -38 -33 -55 -45 -16 -12 -57 -46 -89 -77 -32 -30 -86 -69
-119 -86 -33 -18 -74 -47 -91 -66 -32 -36 -52 -41 -86 -23 -19 10 -20 9 -16
-15 3 -14 4 -26 2 -26 -2 0 -19 16 -39 35 -28 28 -42 35 -68 33 -21 -1 -45 6
-64 20 -33 23 -96 29 -123 12 -9 -6 -14 -21 -12 -39 2 -16 -1 -46 -7 -68 -7
-24 -7 -57 -1 -93 5 -30 14 -83 20 -118 5 -35 14 -71 20 -81 8 -16 0 -25 -49
-60 -33 -22 -62 -41 -65 -41 -3 0 -64 -57 -134 -127 -127 -127 -213 -227 -266
-312 -32 -50 -101 -228 -116 -299 -6 -26 -21 -69 -35 -97 -49 -100 -80 -293
-73 -454 2 -44 0 -77 -4 -75 -4 3 -20 25 -34 50 -39 67 -49 53 -47 -62 2 -170
52 -368 119 -477 l36 -58 -3 -161 -4 -160 30 -26 c17 -15 45 -39 64 -55 l33
-27 -28 -36 c-53 -66 -52 -62 -9 -100 72 -62 209 -152 290 -190 189 -88 453
-173 650 -209 286 -51 669 -47 951 11 263 54 579 173 739 277 84 56 185 137
185 149 0 5 -16 28 -35 51 -19 22 -35 46 -35 52 0 7 18 25 41 40 60 42 65 59
57 172 -10 138 -2 198 36 258 59 93 94 202 122 380 31 197 11 288 -41 185 -13
-27 -28 -51 -32 -53 -5 -3 -8 63 -9 147 -1 205 -33 362 -84 406 -11 10 -20 26
-20 37 0 73 -121 291 -262 471 -30 38 -47 70 -44 78 11 29 -12 54 -50 54 -46
0 -52 20 -20 67 14 21 26 45 26 54 0 10 12 40 26 68 17 32 30 78 35 123 4 40
9 82 11 93 2 15 -7 25 -36 39 -36 18 -42 18 -80 4 -27 -10 -60 -14 -94 -10
-39 3 -52 1 -52 -9 0 -10 -3 -10 -12 -1 -7 7 -20 12 -30 12 -10 0 -33 15 -50
34 -35 38 -118 191 -118 218 0 9 -24 56 -53 105 -29 48 -59 101 -67 116 -8 16
-27 39 -42 52 -29 25 -36 45 -16 45 6 0 0 9 -13 21 -13 11 -23 28 -21 36 2 8
-1 13 -6 9 -5 -3 -25 8 -44 24 -39 32 -103 51 -134 39z m250 -226 l17 -38 -28
32 c-15 17 -37 34 -48 36 -13 3 -9 5 11 6 26 1 33 -5 48 -36z m-150 -34 c78
-65 86 -84 13 -30 -31 22 -61 41 -67 41 -5 0 -10 5 -10 11 0 8 -26 10 -79 8
-67 -4 -76 -2 -58 8 12 7 48 12 81 13 55 0 61 -2 120 -51z m-227 7 c1 0 -18
-1 -42 -1 -36 0 -50 -6 -79 -34 -20 -19 -36 -31 -36 -25 1 14 26 44 37 44 6 0
16 6 23 14 19 24 64 25 97 2z m377 -38 c9 -23 14 -43 12 -45 -2 -2 -9 11 -16
29 -7 18 -20 41 -29 51 -13 16 -13 17 1 12 8 -3 23 -25 32 -47z m-608 -53
c-51 -52 -96 -95 -101 -95 -4 0 0 9 10 20 15 17 12 16 -26 -5 -24 -14 -53 -29
-64 -34 -24 -11 -70 -59 -63 -66 2 -3 23 11 45 30 50 43 67 46 28 5 -16 -16
-26 -30 -22 -30 4 0 0 -11 -9 -25 -9 -14 -21 -25 -27 -25 -6 0 0 12 14 27 21
23 22 25 4 19 -11 -4 -24 -8 -30 -9 -5 -1 -18 -15 -27 -32 -21 -37 -24 -25 -3
15 9 17 14 30 11 30 -2 0 -27 -16 -56 -35 -53 -35 -84 -43 -95 -25 -4 7 2 9
17 5 19 -5 30 3 60 39 23 27 49 47 67 51 17 4 69 41 120 85 90 80 192 149 222
150 10 0 -21 -39 -75 -95z m689 -35 c7 -8 23 -37 35 -65 12 -27 30 -66 39 -85
10 -19 24 -55 31 -80 8 -25 18 -51 23 -58 7 -8 7 -16 0 -23 -7 -7 -14 0 -22
22 -6 17 -11 38 -11 45 0 8 -19 44 -42 81 -23 38 -41 78 -40 89 1 12 -5 27
-13 34 -8 7 -15 18 -15 24 0 6 -8 27 -19 46 -10 19 -21 46 -25 60 -4 14 5 3
19 -25 15 -27 33 -57 40 -65z m-662 -35 c-3 -9 -8 -14 -10 -11 -3 3 -2 9 2 15
9 16 15 13 8 -4z m516 -139 c1 -55 -1 -97 -3 -95 -3 2 -6 55 -8 117 -2 63 -1
106 3 95 4 -10 8 -63 8 -117z m-564 -21 c-31 -75 -32 -64 -2 27 12 38 23 62
25 51 1 -10 -9 -45 -23 -78z m-626 71 c9 -8 38 -26 64 -40 48 -25 48 -25 41
-3 l-7 22 23 -20 c37 -33 83 -95 76 -103 -4 -3 -19 8 -33 27 -19 24 -28 29
-34 20 -4 -7 -4 -20 1 -29 10 -19 2 -62 -11 -54 -5 2 -6 17 -3 32 4 21 -1 33
-22 52 l-27 25 19 -30 c12 -18 19 -47 19 -77 0 -53 -4 -58 -23 -28 -10 17 -10
23 3 36 8 9 15 18 15 20 0 7 -21 31 -73 85 -38 39 -54 49 -81 49 -21 0 -36 6
-40 15 -4 12 3 15 36 15 23 0 49 -6 57 -14z m271 -159 c0 -16 -5 -37 -10 -48
-12 -21 -45 -26 -56 -7 -5 7 -2 9 8 6 26 -11 41 9 42 55 1 48 16 42 16 -6z
m1064 -57 c7 -8 16 -33 20 -55 3 -22 9 -51 12 -65 4 -14 4 -22 0 -18 -4 3 -13
30 -21 60 -7 29 -20 71 -29 93 -8 22 -15 54 -14 70 0 21 3 15 10 -20 5 -27 15
-57 22 -65z m-881 65 c-3 -9 -8 -14 -10 -11 -3 3 -2 9 2 15 9 16 15 13 8 -4z
m137 -22 c-11 -17 -11 -17 -6 0 3 10 6 24 7 30 0 9 2 9 5 0 3 -7 0 -20 -6 -30z
m-275 -28 c-32 -93 -84 -189 -85 -158 0 6 4 14 9 17 5 4 26 47 47 96 38 92 54
117 29 45z m114 -24 c-16 -54 -24 -46 -9 9 6 23 14 40 16 37 3 -3 0 -24 -7
-46z m1079 -20 c-12 -11 -25 -36 -29 -62 l-8 -44 3 49 c2 27 10 52 17 57 9 5
10 9 3 9 -7 0 -14 6 -17 14 -5 12 -1 13 24 4 l29 -10 -22 -17z m341 30 c10 -6
11 -13 2 -29 -6 -11 -11 -45 -12 -74 -1 -41 -3 -48 -9 -28 -8 25 -8 25 -10 -5
-5 -62 -9 -88 -18 -97 -14 -14 4 98 27 171 12 40 13 38 -19 45 -19 5 -42 -5
-97 -41 -39 -26 -69 -52 -66 -57 3 -6 0 -5 -7 1 -11 10 -10 17 5 35 l19 23
-22 -21 c-20 -18 -22 -24 -11 -47 7 -15 16 -24 20 -21 17 10 8 -12 -17 -40
-29 -33 -44 -28 -20 8 20 31 22 59 2 34 -18 -24 -25 -23 -19 2 3 11 10 20 15
20 5 0 7 4 3 9 -7 13 26 79 45 87 8 3 30 8 49 9 18 2 38 8 44 14 13 13 76 14
96 2z m-652 -38 c-3 -10 -5 -4 -5 12 0 17 2 24 5 18 2 -7 2 -21 0 -30z m450
24 c-10 -7 -34 -27 -54 -44 -19 -18 -40 -33 -46 -33 -13 0 -9 4 51 54 24 20
49 36 55 35 7 0 4 -6 -6 -12z m-1463 -76 c-16 -16 -31 -27 -34 -24 -5 4 49 53
59 53 2 0 -9 -13 -25 -29z m217 2 c-12 -20 -14 -14 -5 12 4 9 9 14 11 11 3 -2
0 -13 -6 -23z m993 -118 c4 -19 3 -25 -3 -15 -4 8 -11 29 -15 45 -4 19 -3 25
3 15 4 -8 11 -28 15 -45z m-1174 25 c-6 -11 -13 -20 -16 -20 -2 0 0 9 6 20 6
11 13 20 16 20 2 0 0 -9 -6 -20z m1322 -74 c17 -12 19 -16 6 -16 -19 0 -48 37
-47 60 0 9 3 7 9 -6 5 -12 19 -29 32 -38z m-1438 19 c-9 -14 -28 -28 -43 -31
-14 -4 -32 -13 -38 -22 -7 -9 -13 -11 -13 -4 0 14 40 42 60 42 8 0 21 9 28 20
7 11 14 20 17 20 3 0 -2 -11 -11 -25z m626 -24 c61 -5 26 -7 -128 -7 -117 1
-203 4 -190 8 31 8 212 8 318 -1z m-764 -60 c-8 -21 -13 -41 -10 -44 2 -2 -7
-12 -21 -21 -14 -9 -25 -23 -25 -32 0 -8 -20 -36 -44 -62 -42 -45 -43 -49 -30
-72 10 -19 13 -21 14 -7 0 24 30 22 30 -3 0 -11 -6 -20 -13 -20 -9 0 -12 -11
-9 -35 4 -37 -21 -129 -41 -150 -9 -9 -12 10 -11 84 1 82 0 85 -3 19 -4 -73
-12 -93 -29 -67 -4 8 -9 7 -15 -2 -6 -10 -10 -9 -15 6 -5 11 -3 20 4 23 6 2 9
9 6 16 -3 7 -1 31 5 54 5 23 8 42 6 42 -3 0 -75 -109 -75 -114 0 -3 17 -14 38
-26 49 -28 73 -62 75 -108 2 -36 1 -38 -28 -37 -37 2 -74 25 -100 65 -11 16
-23 30 -26 30 -10 0 -74 -158 -99 -242 -12 -39 -21 -90 -21 -112 1 -23 2 -50
2 -61 1 -43 -5 -63 -19 -58 -11 5 -11 7 0 15 9 7 8 8 -5 4 -10 -3 -28 -1 -40
6 -20 10 -21 10 -8 -6 8 -9 29 -23 48 -31 36 -15 57 -52 41 -72 -24 -30 -124
-6 -164 39 -17 18 -17 20 -2 29 17 10 32 85 29 153 0 22 5 47 13 55 7 9 18 37
24 62 19 78 87 235 138 320 58 96 181 247 250 306 141 120 160 128 130 54z
m-76 45 c0 -2 -8 -10 -17 -17 -16 -13 -17 -12 -4 4 13 16 21 21 21 13z m1150
-25 c112 -20 194 -40 188 -46 -2 -2 -30 2 -63 10 -33 7 -104 20 -157 30 -54
10 -98 19 -98 21 0 7 23 4 130 -15z m507 -38 c-3 -10 -5 -2 -5 17 0 19 2 27 5
18 2 -10 2 -26 0 -35z m-1304 10 c-7 -2 -14 -14 -14 -26 -1 -18 -2 -19 -6 -4
-3 11 -11 16 -19 13 -8 -3 -14 -3 -14 0 0 6 41 23 55 23 6 -1 4 -3 -2 -6z
m242 -65 c-5 -35 -10 -57 -13 -50 -5 17 8 125 15 118 3 -2 2 -33 -2 -68z
m-665 58 c0 -2 -8 -10 -17 -17 -16 -13 -17 -12 -4 4 13 16 21 21 21 13z m318
-33 c-37 -15 -38 -17 -39 -67 0 -28 -7 -67 -15 -86 l-14 -35 6 35 c11 66 16
140 10 140 -4 0 -18 -7 -31 -16 -14 -9 -40 -16 -60 -16 -39 0 -65 -26 -65 -65
0 -32 -40 -206 -46 -200 -2 2 8 63 22 135 30 147 22 138 139 162 33 7 69 16
80 20 11 5 27 9 35 8 8 0 -2 -7 -22 -15z m-358 -7 c0 -2 -8 -10 -17 -17 -16
-13 -17 -12 -4 4 13 16 21 21 21 13z m587 -63 c-3 -10 -5 -2 -5 17 0 19 2 27
5 18 2 -10 2 -26 0 -35z m1233 7 c16 -16 30 -34 30 -39 0 -6 -16 5 -35 25 -19
19 -35 37 -35 39 0 10 11 4 40 -25z m-1389 -16 c-5 -16 -10 -21 -10 -12 -1 18
10 51 15 45 2 -1 -1 -16 -5 -33z m-224 -31 c-3 -10 -5 -4 -5 12 0 17 2 24 5
18 2 -7 2 -21 0 -30z m1390 -10 c-3 -10 -5 -4 -5 12 0 17 2 24 5 18 2 -7 2
-21 0 -30z m398 -79 c30 -40 79 -118 109 -175 51 -93 55 -105 46 -134 -12 -35
-88 -117 -101 -109 -5 3 -9 0 -9 -5 0 -6 -9 -11 -19 -11 -38 0 -51 11 -51 46
0 26 9 43 38 72 35 35 37 41 39 102 l2 65 -9 -55 c-6 -41 -15 -60 -34 -75 -14
-11 -26 -26 -26 -33 0 -8 -13 1 -30 19 -19 21 -28 40 -25 53 3 12 7 59 9 106
3 69 0 92 -15 122 -11 21 -22 59 -26 85 l-6 48 28 -25 c15 -14 51 -57 80 -96z
m-1418 84 c-3 -8 -6 -5 -6 6 -1 11 2 17 5 13 3 -3 4 -12 1 -19z m120 -10 c-3
-7 -5 -2 -5 12 0 14 2 19 5 13 2 -7 2 -19 0 -25z m-280 -20 c-3 -7 -5 -2 -5
12 0 14 2 19 5 13 2 -7 2 -19 0 -25z m1341 -28 c20 0 84 -36 113 -63 23 -22
27 -36 32 -104 3 -43 2 -121 -2 -173 l-8 -95 -1 115 c0 63 -6 143 -12 178 -12
58 -16 65 -54 86 -66 38 -84 41 -89 14 -4 -21 -4 -20 -6 4 0 15 -7 31 -13 35
-7 4 -22 19 -33 32 -20 24 -19 24 20 -2 22 -15 46 -27 53 -27z m118 -18 c-9
-8 -13 0 -19 38 l-6 35 15 -34 c8 -18 13 -36 10 -39z m-1685 12 l-9 -39 -1 36
c-1 20 2 39 6 42 12 13 13 0 4 -39z m1276 -31 c-2 -16 -4 -3 -4 27 0 30 2 43
4 28 2 -16 2 -40 0 -55z m146 -13 c4 -30 3 -38 -3 -25 -8 19 -14 83 -6 74 2
-2 6 -24 9 -49z m-1035 -15 c4 3 0 10 -8 15 -22 14 -7 12 33 -5 43 -18 50 -19
41 -4 -4 8 1 9 17 4 13 -4 38 -11 54 -16 17 -4 47 -11 68 -14 20 -3 37 -10 37
-15 0 -6 10 -10 23 -10 13 0 38 -15 57 -35 19 -19 30 -35 26 -35 -4 0 6 -14
23 -30 26 -26 28 -34 21 -61 -12 -40 -14 -43 -42 -36 -21 6 -23 11 -20 66 l4
60 -35 -6 c-35 -5 -54 7 -42 28 5 7 14 4 26 -7 10 -9 19 -12 19 -7 0 13 -27
36 -46 39 -8 1 -14 -2 -14 -7 0 -14 -28 -11 -33 4 -3 7 -6 5 -6 -5 -1 -29 -35
-21 -74 17 -33 32 -66 48 -52 25 8 -12 8 -12 -35 1 -19 5 -44 12 -55 14 -10 3
-28 14 -40 26 l-20 21 33 -17 c19 -9 37 -14 40 -10z m-43 -25 c16 -17 15 -18
-21 -15 -20 2 -44 10 -52 18 -12 13 -10 15 21 15 22 0 42 -7 52 -18z m1212
-32 c-3 -8 -6 -5 -6 6 -1 11 2 17 5 13 3 -3 4 -12 1 -19z m-1297 -26 c0 -38
-14 -54 -41 -50 -16 2 -23 9 -22 22 1 13 -2 15 -10 7 -13 -13 13 -74 61 -144
19 -27 31 -51 28 -54 -10 -10 15 -44 47 -63 52 -32 64 -23 14 11 -45 30 -65
49 -52 49 4 0 25 -14 47 -31 22 -18 64 -42 95 -54 49 -20 53 -24 37 -35 -17
-10 -15 -11 11 -6 37 6 164 -27 176 -46 13 -19 11 -34 -6 -48 -22 -19 -18 -59
10 -96 33 -44 36 -74 8 -85 -13 -4 -22 -5 -22 -1 3 20 -3 20 -21 2 -24 -24
-42 -26 -33 -4 5 14 3 15 -15 5 -11 -6 -24 -16 -27 -21 -8 -13 -115 -13 -115
0 0 6 -6 10 -12 9 -31 -4 -48 3 -78 31 -32 30 -32 31 -14 46 19 15 -2 5 -98
-51 -46 -26 -69 -47 -29 -25 13 7 22 7 26 0 10 -16 -6 -32 -24 -24 -9 4 -26 6
-37 6 -16 -1 -24 6 -28 24 -4 13 -11 22 -16 19 -6 -3 -10 0 -10 7 0 9 -3 9
-10 -2 -7 -12 -12 -7 -25 24 -12 28 -21 37 -34 33 -16 -4 -19 4 -25 47 -3 28
-6 85 -7 126 0 82 -10 75 -28 -20 -8 -47 -9 -38 -4 55 6 123 29 201 72 244 43
43 109 91 145 106 32 13 35 13 39 -3 3 -12 5 -11 6 6 1 32 21 17 21 -16z
m-702 5 c2 -11 -3 -17 -16 -17 -26 0 -34 11 -20 27 14 17 32 12 36 -10z m1593
3 c83 13 90 12 54 -5 l-30 -15 49 4 c30 2 43 1 35 -5 -8 -5 -9 -9 -4 -9 6 0 3
-5 -5 -10 -20 -13 -70 -13 -70 1 0 13 -39 2 -61 -17 -20 -18 -67 -17 -99 1
-30 17 -44 19 -35 5 10 -17 14 -50 6 -50 -4 0 -13 -11 -19 -25 -6 -14 -15 -24
-19 -23 -5 1 -20 -6 -35 -16 -39 -26 -72 -18 -76 18 -7 62 19 95 89 110 60 13
97 24 115 34 12 7 23 7 30 1 8 -6 35 -6 75 1z m-1241 -33 c0 -7 -7 -22 -15
-33 -13 -17 -13 -16 -3 14 13 34 18 40 18 19z m554 -6 c-54 -25 -74 -55 -74
-112 0 -41 4 -51 35 -78 20 -17 43 -31 53 -31 11 0 6 7 -15 20 -41 25 -66 72
-58 110 13 60 115 111 115 58 0 -13 -11 -36 -25 -52 -29 -34 -31 -43 -8 -68 9
-10 16 -32 16 -48 0 -18 6 -30 14 -30 7 0 12 9 10 21 -1 13 6 26 18 33 11 6
23 16 27 21 12 16 9 104 -3 127 l-11 21 28 -20 c16 -12 33 -20 38 -19 5 0 17
-10 28 -24 27 -37 14 -83 -37 -136 -38 -40 -46 -44 -91 -44 -83 0 -160 54
-199 140 -18 39 -18 40 6 60 45 38 110 68 154 69 12 0 3 -7 -21 -18z m856 9
c-20 -12 -10 -19 41 -29 l44 -8 -40 -11 c-24 -7 -41 -8 -43 -2 -2 5 -18 7 -35
3 l-32 -6 29 32 c17 17 35 31 40 31 6 0 4 -4 -4 -10z m258 -55 c0 -16 -2 -15
-8 5 -4 14 -8 34 -8 45 0 16 2 15 8 -5 4 -14 8 -34 8 -45z m-762 7 c-10 -2
-22 0 -28 6 -6 6 0 7 19 4 21 -5 23 -7 9 -10z m-1326 -6 c0 -3 -4 -8 -10 -11
-5 -3 -10 -1 -10 4 0 6 5 11 10 11 6 0 10 -2 10 -4z m1752 -41 c57 -38 73 -68
58 -105 -16 -39 -82 -96 -128 -111 -107 -35 -210 31 -214 138 -1 29 4 41 27
59 15 12 34 20 41 17 6 -2 15 0 19 6 3 6 11 11 16 11 6 0 8 -4 5 -9 -3 -5 3
-11 14 -14 12 -3 20 -14 20 -26 0 -17 -10 -27 -58 -57 -2 -1 0 -13 4 -28 3
-14 10 -23 15 -20 5 3 13 -5 18 -18 6 -17 5 -25 -8 -29 -12 -5 -9 -9 13 -14
66 -18 156 48 156 114 0 38 -35 90 -73 107 l-32 15 35 -6 c19 -3 52 -17 72
-30z m-98 11 c40 -17 76 -60 76 -93 0 -39 -27 -79 -64 -97 -19 -9 -39 -16 -46
-16 -15 0 -3 41 16 56 22 18 18 106 -7 138 -23 30 -21 31 25 12z m240 -11 c-4
-8 -1 -15 5 -15 6 0 11 7 11 16 0 9 6 14 13 12 6 -3 12 -13 12 -24 0 -13 -8
-20 -27 -22 -22 -3 -28 1 -28 16 0 10 3 22 7 25 10 11 13 8 7 -8z m676 -41 c0
-17 -22 -14 -28 4 -2 7 3 12 12 12 9 0 16 -7 16 -16z m-2192 -19 c-3 -3 -9 2
-12 12 -6 14 -5 15 5 6 7 -7 10 -15 7 -18z m1626 -18 c47 -33 60 -78 57 -197
-2 -114 -29 -229 -41 -180 l-6 25 -8 -25 c-5 -14 -9 -27 -10 -30 -17 -60 -125
-196 -126 -158 0 22 39 88 53 88 5 0 2 -9 -8 -20 -26 -29 -13 -35 14 -6 l22
24 -32 11 c-18 6 -35 9 -37 6 -3 -3 0 -5 6 -5 16 0 4 -27 -15 -34 -12 -5 -13
0 -8 24 4 19 3 30 -4 30 -6 0 -11 -4 -11 -8 0 -5 -7 -17 -15 -28 -14 -17 -14
-16 -1 13 15 30 15 32 -5 38 -25 8 -22 12 -38 -50 -12 -49 -12 -51 14 -72 33
-29 23 -30 -16 -2 -16 11 -29 17 -29 12 0 -4 -5 0 -10 9 -6 9 -24 23 -41 32
-16 8 -47 25 -67 36 -36 21 -36 21 -12 1 14 -11 33 -23 43 -27 26 -8 21 -21
-14 -33 -44 -15 -59 -14 -82 7 -19 16 -20 16 -15 -5 l6 -21 -57 19 c-32 11
-65 31 -78 47 -18 21 -22 23 -23 10 0 -28 -16 -21 -30 12 -13 32 -25 38 -33
18 -3 -9 -7 -7 -12 5 -7 18 19 87 34 87 14 0 31 50 25 74 -5 20 1 25 38 39 24
10 68 17 98 17 42 1 51 3 38 11 -10 5 -55 10 -100 10 -79 0 -114 11 -102 30 3
5 -2 9 -10 9 -19 0 -19 -1 -6 -34 l9 -25 -56 4 c-64 5 -94 25 -74 49 9 11 9
15 -1 18 -19 7 10 85 33 91 13 3 17 11 13 21 -9 24 29 21 57 -5 13 -11 18 -18
12 -14 -7 3 -13 4 -13 0 0 -3 12 -10 26 -15 20 -8 24 -13 15 -24 -8 -10 -6
-20 11 -42 13 -15 18 -25 11 -21 -6 4 -14 0 -17 -8 -3 -9 1 -18 10 -22 19 -7
54 24 38 35 -6 4 -13 15 -17 25 -4 10 -11 16 -16 12 -5 -3 -12 -1 -15 4 -10
15 22 6 42 -12 21 -19 43 -24 24 -5 -7 7 -12 16 -12 20 0 12 29 -6 61 -35 43
-42 71 -50 168 -53 74 -3 100 0 123 14 43 25 34 35 -12 12 -21 -11 -47 -20
-57 -20 -10 0 6 11 35 25 74 34 112 66 162 134 24 34 48 58 54 54 6 -3 24 -15
40 -26z m-1736 8 c52 -22 81 -52 77 -81 -1 -13 1 -21 6 -19 4 3 9 0 11 -7 6
-17 -16 -38 -39 -38 -14 0 -12 -4 10 -19 48 -31 80 -96 48 -97 -9 -1 -27 -4
-41 -8 -31 -8 -96 31 -128 78 -35 52 -30 60 34 53 l55 -6 -39 29 c-22 16 -43
33 -47 39 -3 6 -15 11 -25 11 -16 0 -19 6 -17 40 2 36 4 40 30 40 15 0 44 -7
65 -15z m1995 -52 c4 -18 3 -34 -2 -37 -4 -3 -8 8 -9 24 0 17 -3 40 -7 53 -4
16 -3 18 3 7 5 -8 12 -29 15 -47z m245 -6 c34 -108 62 -248 62 -314 0 -41 11
-55 25 -33 6 10 70 40 86 40 14 0 11 -36 -8 -82 -25 -64 -50 -92 -90 -99 -29
-5 -36 -3 -43 15 -8 18 -9 17 -9 -11 -1 -17 -5 -34 -10 -37 -5 -4 -7 4 -5 16
3 14 0 11 -7 -7 -7 -16 -17 -33 -22 -37 -12 -7 -51 17 -53 32 -1 6 -2 17 -3
25 0 8 -4 15 -8 15 -5 0 -6 -23 -4 -52 2 -37 -2 -62 -14 -85 -20 -37 -27 -40
-45 -18 -18 22 -30 18 -30 -10 0 -13 -5 -36 -12 -50 -12 -26 -12 -26 -30 22
-15 41 -16 49 -3 55 8 5 21 15 29 23 13 13 15 13 19 -3 3 -9 5 2 6 25 0 23 6
54 12 70 12 34 55 76 69 68 5 -3 19 15 31 40 19 40 21 55 14 118 -10 91 -10
135 -1 167 7 23 6 22 -12 -5 -38 -59 -109 -105 -162 -105 -16 0 -31 3 -31 8
-5 29 -4 60 3 56 4 -3 8 1 8 9 0 29 77 77 125 77 14 0 25 6 25 13 0 8 9 22 19
31 11 10 25 31 31 47 15 35 20 32 38 -24z m-1358 -55 c0 -17 -25 -32 -54 -32
l-31 0 30 20 c31 21 55 26 55 12z m265 -62 c-3 -5 -12 -10 -18 -10 -7 0 -6 4
3 10 19 12 23 12 15 0z m800 -30 c10 -16 -5 -50 -21 -50 -15 0 -18 18 -8 44 7
18 20 21 29 6z m-2063 -67 c24 -55 26 -123 3 -135 -8 -5 -13 -13 -10 -18 6
-10 -34 -5 -44 6 -19 18 3 194 24 194 4 0 15 -21 27 -47z m2254 11 c-4 -11 1
-18 14 -21 11 -3 20 -8 20 -12 0 -17 -66 -84 -101 -101 -43 -23 -72 -24 -111
-7 -26 12 -26 13 -13 45 11 24 28 39 67 57 29 14 63 25 74 25 12 0 27 7 34 15
16 20 24 19 16 -1z m-1085 -6 c48 -14 60 -42 30 -69 -11 -11 -16 -14 -11 -7 6
7 10 22 10 35 0 31 -61 47 -130 35 -42 -8 -48 -7 -39 4 14 17 88 18 140 2z
m-938 -48 c19 -13 40 -33 47 -44 7 -12 9 -18 5 -14 -5 5 -14 -1 -22 -11 -16
-24 -64 -25 -108 -4 -32 16 -95 72 -95 84 0 28 128 20 173 -11z m1796 -31 c1
-30 -22 -45 -39 -24 -8 10 -7 23 6 52 14 34 17 36 24 18 5 -11 9 -32 9 -46z
m-863 38 c-10 -7 -18 -28 -19 -51 -2 -22 -7 -41 -13 -43 -5 -2 -9 13 -8 33 2
35 27 74 47 74 6 0 3 -6 -7 -13z m-1070 -112 c7 -27 13 -43 13 -34 1 17 31 48
31 33 0 -5 33 -9 73 -9 58 0 78 -4 98 -20 l26 -21 -48 -31 -47 -30 -40 17
c-38 17 -39 17 -35 -1 8 -31 -6 -67 -28 -74 -31 -10 -41 6 -41 66 0 45 -2 50
-10 32 -14 -29 -34 -35 -50 -16 -19 23 -14 117 7 149 17 26 18 26 28 8 6 -10
16 -41 23 -69z m228 56 c3 -5 -1 -14 -8 -20 -12 -10 -13 -8 -9 8 6 23 9 25 17
12z m1644 -92 c-7 -20 -27 9 -21 31 l6 24 9 -24 c5 -13 7 -27 6 -31z m-1596 9
c-7 -7 -12 -8 -12 -2 0 14 12 26 19 19 2 -3 -1 -11 -7 -17z m1860 -6 c23 -23
-64 -88 -146 -108 -20 -5 -27 -4 -22 4 4 8 2 10 -7 6 -9 -3 -23 6 -36 24 -19
28 -20 30 -3 45 40 36 76 48 139 45 35 -2 68 -9 75 -16z m-2314 -36 c44 -1 66
-6 72 -16 5 -8 10 -11 10 -6 0 6 6 1 14 -9 39 -53 -67 -78 -148 -34 -21 11
-40 18 -42 16 -2 -2 14 -12 36 -23 28 -13 40 -25 40 -40 l0 -22 37 19 c56 29
145 24 158 -9 3 -9 -4 -25 -17 -40 -20 -21 -29 -23 -70 -19 -26 3 -61 13 -78
22 -30 16 -32 16 -26 -2 2 -10 9 -44 15 -75 6 -31 22 -91 36 -133 30 -91 31
-101 5 -115 -11 -6 -20 -19 -20 -30 0 -10 -5 -22 -10 -25 -6 -3 -8 -18 -5 -33
8 -45 -52 87 -79 173 -37 116 -56 234 -56 341 l0 95 32 -17 c19 -10 59 -17 96
-18z m812 -35 c30 -24 32 -29 19 -48 -20 -33 -1 -41 24 -11 29 34 47 39 86 22
32 -13 33 -15 17 -32 -15 -18 -14 -18 14 -14 35 5 70 -20 70 -49 0 -25 -17
-33 -28 -13 -8 15 -11 12 -17 -14 -7 -34 -38 -62 -67 -62 -9 0 -27 10 -39 23
l-22 22 6 -24 c7 -27 -9 -67 -30 -75 -8 -3 -23 -1 -33 4 -35 19 -56 11 -73
-25 -20 -43 -37 -45 -37 -6 0 42 -16 78 -39 91 -54 28 -106 -30 -81 -91 15
-36 4 -52 -31 -47 -19 2 -23 8 -21 28 2 14 4 43 5 65 2 38 0 40 -28 43 -44 4
-85 22 -85 38 0 7 14 29 31 48 53 61 137 68 192 18 30 -29 35 -23 11 13 -9 14
-33 29 -55 35 -21 6 -39 15 -39 19 0 14 59 61 83 66 79 16 128 9 167 -24z
m404 17 c14 -19 16 -20 16 -4 0 23 22 16 35 -12 13 -29 28 -28 19 1 -6 20 -3
19 24 -8 18 -16 32 -37 32 -45 0 -13 1 -13 10 0 8 13 10 12 10 -2 0 -10 5 -18
10 -18 6 0 10 8 11 18 0 10 3 12 6 5 2 -7 9 -13 14 -13 6 0 7 6 3 13 -6 8 -3
8 9 -2 12 -9 14 -18 7 -31 -10 -19 -39 -34 -48 -25 -3 3 0 5 6 5 7 0 12 5 12
10 0 16 -19 12 -42 -10 -12 -11 -27 -19 -33 -17 -5 2 -20 1 -31 -4 -19 -7 -21
-5 -17 14 4 20 3 21 -10 5 -19 -24 -37 -23 -37 1 0 11 -4 23 -10 26 -6 4 -10
-6 -10 -22 0 -22 -2 -25 -10 -13 -5 8 -10 11 -10 7 0 -4 -14 8 -31 28 -37 42
-51 39 -19 -4 17 -25 18 -30 4 -24 -14 5 -15 3 -4 -18 l11 -24 -20 25 c-11 14
-21 21 -21 16 0 -5 -7 -3 -15 4 -8 6 -18 9 -23 6 -6 -3 -15 1 -22 9 -7 8 -19
15 -26 15 -19 0 -38 44 -29 67 7 16 9 15 15 -7 5 -14 8 -18 9 -9 1 9 11 24 23
35 19 16 20 16 9 1 -22 -28 -2 -35 21 -7 l21 25 -7 -25 -7 -25 20 23 c14 16
27 22 41 17 11 -3 28 -2 37 4 25 15 30 14 47 -11z m-749 2 c-3 -5 -12 -10 -18
-10 -7 0 -6 4 3 10 19 12 23 12 15 0z m455 -11 c0 -5 5 -7 10 -4 6 3 10 1 10
-4 0 -12 -11 -14 -34 -5 -9 3 -13 10 -10 15 7 12 24 11 24 -2z m1140 -30 c0
-13 -32 4 -51 27 -13 16 -12 16 19 0 17 -9 32 -21 32 -27z m-1640 10 c-8 -5
-19 -13 -25 -17 -5 -4 -32 -40 -59 -80 -45 -66 -94 -123 -71 -82 4 8 14 22 21
30 7 8 28 42 48 74 20 32 48 67 63 76 29 18 49 17 23 -1z m-129 -54 l-26 -43
-3 40 c-5 59 2 70 32 57 l24 -11 -27 -43z m-561 25 c0 -5 -4 -10 -10 -10 -5 0
-10 5 -10 10 0 6 5 10 10 10 6 0 10 -4 10 -10z m1720 -28 c0 -15 -2 -15 -10
-2 -13 20 -13 33 0 25 6 -3 10 -14 10 -23z m1137 15 c1 -2 -4 -22 -13 -45 -15
-36 -21 -41 -57 -47 l-40 -7 30 -15 c28 -13 29 -17 19 -39 -12 -26 -58 -44
-114 -44 -22 0 -41 8 -59 26 -25 25 -25 27 -7 37 10 6 29 21 42 35 17 18 26
22 35 13 6 -6 18 -11 26 -11 11 0 10 4 -4 20 -16 18 -17 21 -1 44 19 29 68 47
110 40 16 -2 31 -6 33 -7z m-395 -8 c15 -8 23 -8 31 0 8 8 14 5 23 -11 10 -19
9 -24 -11 -40 -34 -27 -48 -22 -72 22 -23 43 -14 52 29 29z m-84 -34 c-3 -3
-9 2 -12 12 -6 14 -5 15 5 6 7 -7 10 -15 7 -18z m-373 -5 c-3 -5 -12 -10 -18
-10 -7 0 -6 4 3 10 19 12 23 12 15 0z m-2038 -22 c-3 -8 -6 -5 -6 6 -1 11 2
17 5 13 3 -3 4 -12 1 -19z m2093 -33 c0 -43 -3 -55 -16 -55 -10 0 -14 6 -11
18 3 9 8 34 12 55 9 53 15 46 15 -18z m877 33 c-3 -8 -6 -5 -6 6 -1 11 2 17 5
13 3 -3 4 -12 1 -19z m-1052 2 c-3 -5 -11 -10 -16 -10 -6 0 -7 5 -4 10 3 6 11
10 16 10 6 0 7 -4 4 -10z m526 -57 c12 -38 25 -72 29 -78 25 -33 50 -153 49
-234 l-2 -86 -7 95 c-5 52 -15 115 -24 140 -31 82 -76 215 -76 223 0 21 11 0
31 -60z m-2076 17 c3 -5 -1 -10 -9 -10 -8 0 -18 5 -21 10 -3 6 1 10 9 10 8 0
18 -4 21 -10z m148 -21 c-10 -17 -24 -33 -30 -36 -7 -3 -10 -10 -7 -15 9 -15
-78 1 -95 17 -21 21 51 65 107 65 l43 0 -18 -31z m1517 10 c0 -11 -5 -29 -11
-41 -12 -22 -4 -68 11 -68 6 0 10 7 10 15 0 8 4 15 9 15 6 0 7 -23 4 -54 -6
-60 3 -126 17 -126 6 0 10 8 11 18 0 9 7 -8 15 -38 19 -71 55 -131 105 -177
23 -21 48 -51 56 -68 14 -28 12 -27 -17 8 -17 20 -36 34 -41 31 -6 -3 -20 2
-31 13 -21 18 -21 18 -9 -5 12 -23 12 -23 -13 -7 -14 9 -31 15 -38 13 -7 -3 1
-12 20 -22 18 -9 36 -15 41 -12 9 6 43 -28 60 -61 12 -23 14 -84 5 -119 -7
-25 -55 -44 -112 -44 -23 0 -42 -4 -42 -9 0 -17 15 -20 74 -12 49 7 55 6 43
-6 -10 -10 -59 -18 -163 -25 -148 -10 -217 -27 -118 -29 27 -1 63 -4 79 -8 25
-6 20 -8 -34 -14 -35 -4 -94 -7 -130 -8 -46 0 -60 -3 -46 -9 11 -5 35 -9 53
-9 56 -2 35 -21 -23 -21 -69 0 -162 33 -171 62 -3 11 -1 24 5 27 6 4 -16 31
-54 66 -36 33 -65 64 -65 68 0 5 5 5 10 2 6 -4 18 3 28 14 9 12 40 27 68 33
l51 12 -53 51 c-54 51 -67 75 -39 75 12 0 13 5 3 25 -15 32 8 68 62 95 44 23
78 27 40 5 -24 -14 -23 -14 26 -15 28 0 76 -5 108 -11 31 -7 59 -10 62 -7 2 3
0 18 -6 34 l-11 28 26 -28 c33 -36 40 -29 19 20 -19 45 -36 251 -22 277 15 30
-1 18 -22 -15 -23 -38 -27 -21 -5 22 20 38 59 59 113 60 36 0 42 -3 42 -21z
m-1970 -29 c0 -32 -14 -40 -24 -14 -10 27 -7 44 9 44 10 0 15 -10 15 -30z
m2870 13 c0 -10 -4 -25 -10 -33 -8 -12 -10 -12 -16 3 -7 20 1 47 16 47 5 0 10
-8 10 -17z m-1334 -18 c25 -34 66 -50 92 -36 30 16 40 13 18 -4 -34 -26 -69
-18 -111 25 -21 22 -34 40 -28 40 5 0 19 -11 29 -25z m-249 -11 c2 -7 -10 -26
-27 -43 -18 -18 -26 -31 -18 -32 7 0 0 -7 -17 -15 l-30 -15 28 4 c18 3 25 1
19 -5 -11 -11 -153 -47 -196 -50 -17 0 13 -4 67 -8 144 -10 143 -8 168 -236
10 -98 22 -187 25 -196 8 -28 -27 -77 -71 -98 -81 -39 -333 -52 -409 -21 l-30
12 32 19 c23 14 33 29 37 57 10 57 13 62 14 19 1 -22 9 -49 19 -60 16 -20 16
-20 0 -7 -10 7 -18 9 -18 3 0 -15 21 -20 57 -15 41 6 51 19 58 73 3 25 2 39
-1 33 -3 -7 -13 -13 -22 -13 -13 0 -14 -2 -3 -9 10 -6 10 -10 1 -16 -6 -4 -17
-2 -23 4 -6 6 -7 11 -2 11 5 0 -2 11 -14 24 -50 53 -76 292 -38 349 17 26 17
27 -2 27 -39 0 -44 -32 -31 -197 10 -138 10 -157 -4 -179 -21 -31 -44 -31 -52
1 -3 14 -9 25 -13 25 -8 0 -31 190 -31 257 0 23 5 45 10 48 6 4 8 11 5 16 -8
12 12 11 38 -2 22 -12 22 -12 2 10 -14 16 -26 21 -45 16 -23 -5 -23 -4 -8 8
10 8 15 17 11 20 -3 4 4 7 17 7 12 0 34 12 47 26 22 24 24 32 18 75 -6 44 -5
48 11 42 13 -5 15 -3 10 8 -4 8 2 3 13 -10 12 -13 21 -31 21 -41 0 -9 8 -28
18 -41 22 -29 36 -63 22 -54 -6 3 -10 2 -10 -4 0 -16 21 -24 33 -12 8 8 9 16
1 28 -8 13 -5 25 10 50 20 31 23 33 67 27 40 -5 50 -2 68 17 11 13 21 26 21
29 0 3 16 4 35 2 28 -3 39 1 57 22 23 26 48 31 55 10z m190 -46 c-3 -7 -5 -2
-5 12 0 14 2 19 5 13 2 -7 2 -19 0 -25z m1047 20 c-5 -10 -4 -10 6 -1 9 9 23
8 59 -3 25 -7 63 -14 84 -14 35 0 38 -2 32 -22 -4 -13 -16 -32 -28 -42 -17
-15 -18 -18 -4 -13 22 8 22 0 -7 -75 -34 -90 -71 -169 -110 -234 l-34 -55 -7
76 c-6 66 -4 82 16 130 18 44 28 55 51 61 48 10 26 15 -25 5 -46 -8 -47 -8
-47 18 0 14 -3 36 -6 49 -8 29 7 28 44 -3 28 -23 30 -24 35 -6 3 13 16 21 38
24 20 2 8 4 -29 5 -55 2 -66 5 -86 29 l-24 27 21 28 c21 29 34 38 21 16z
m-2018 -12 c0 0 8 -13 17 -28 16 -25 24 -58 12 -46 -3 3 -22 -10 -42 -28 -20
-19 -40 -31 -44 -27 -3 5 -11 27 -17 51 -9 38 -8 44 9 53 10 5 19 17 19 25 0
11 6 14 23 8 12 -3 22 -7 23 -8z m942 -21 c-3 -3 -9 2 -12 12 -6 14 -5 15 5 6
7 -7 10 -15 7 -18z m-1398 -25 c0 -10 -4 -21 -9 -25 -12 -7 -25 31 -16 45 9
15 25 2 25 -20z m692 -22 c3 -29 1 -35 -9 -26 -14 11 -18 60 -6 72 9 8 10 4
15 -46z m2078 22 c0 -22 -16 -35 -25 -20 -9 14 4 52 16 45 5 -4 9 -15 9 -25z
m-1356 -12 c-4 -13 -13 -52 -20 -88 l-13 -65 3 60 c2 33 10 72 17 88 15 33 23
36 13 5z m-1584 -14 c0 -14 -4 -23 -10 -19 -5 3 -10 15 -10 26 0 10 5 19 10
19 6 0 10 -12 10 -26z m3104 17 c8 -12 -3 -41 -15 -41 -5 0 -9 11 -9 25 0 25
14 34 24 16z m-2307 -110 l6 -42 -27 11 c-46 17 -67 11 -104 -27 -20 -21 -40
-36 -46 -34 -6 2 -26 7 -44 10 l-33 6 26 52 c27 53 67 82 117 84 12 0 32 4 43
9 29 11 55 -18 62 -69z m-280 37 c-3 -8 -6 -5 -6 6 -1 11 2 17 5 13 3 -3 4
-12 1 -19z m251 -84 c21 -6 22 -11 21 -93 l-1 -86 -13 83 c-12 78 -25 118 -25
78 0 -9 -12 -21 -26 -26 -54 -21 -70 -6 -34 30 21 21 39 24 78 14z m-283 -24
c3 -5 -2 -10 -12 -10 -17 -1 -17 -2 1 -15 11 -8 31 -15 45 -15 21 0 23 2 11
11 -13 9 -12 10 3 5 10 -3 47 -10 82 -16 74 -12 116 -26 127 -43 16 -26 8 -67
-19 -92 -25 -23 -35 -26 -83 -22 -30 2 -70 9 -88 15 -29 10 -32 9 -21 -4 9
-11 2 -10 -32 4 -47 20 -81 66 -94 130 l-7 34 26 -17 c15 -10 29 -15 32 -12 3
3 -5 8 -17 12 l-22 7 24 19 c28 21 35 23 44 9z m-313 -32 c-15 -15 -26 -4 -18
18 5 13 9 15 18 6 9 -9 9 -15 0 -24z m2758 6 c0 -14 -12 -19 -23 -8 -9 9 4 35
14 28 5 -3 9 -12 9 -20z m-2730 -14 c0 -5 -4 -10 -10 -10 -5 0 -10 5 -10 10 0
6 5 10 10 10 6 0 10 -4 10 -10z m2218 -20 c17 -11 32 -23 32 -26 0 -3 -11 1
-25 10 -14 9 -48 17 -82 17 -52 1 -54 2 -23 9 56 12 63 11 98 -10z m-867 -66
c-6 -33 -14 -86 -18 -119 l-8 -60 -3 50 c-3 44 26 200 36 191 2 -2 -2 -30 -7
-62z m-1481 25 c0 -24 -23 -21 -28 4 -2 10 3 17 12 17 10 0 16 -9 16 -21z
m2970 7 c0 -8 -4 -18 -10 -21 -5 -3 -10 3 -10 14 0 12 5 21 10 21 6 0 10 -6
10 -14z m-471 -91 c27 -53 39 -165 22 -205 -8 -20 -9 -14 -4 31 4 43 1 63 -13
90 -10 19 -19 49 -19 68 -2 34 -5 38 -77 94 -13 10 -3 7 22 -6 32 -18 52 -38
69 -72z m-238 48 c13 -16 12 -17 -3 -4 -10 7 -18 15 -18 17 0 8 8 3 21 -13z
m-2161 -18 c0 -8 -6 -15 -14 -15 -17 0 -28 14 -19 24 12 12 33 6 33 -9z m2330
-55 c9 -19 20 -51 24 -70 5 -31 4 -30 -11 10 -9 25 -27 62 -40 82 -12 21 -23
41 -23 45 1 12 29 -27 50 -67z m445 60 c3 -6 -1 -13 -10 -16 -19 -8 -30 0 -20
15 8 14 22 14 30 1z m-2539 -32 c-3 -18 -1 -60 4 -92 8 -52 16 -67 57 -110 49
-51 34 -46 -24 8 -24 21 -35 44 -44 84 -10 50 -5 142 8 142 3 0 3 -15 -1 -32z
m-336 6 c0 -8 -4 -12 -10 -9 -5 3 -10 10 -10 16 0 5 5 9 10 9 6 0 10 -7 10
-16z m117 -54 c12 0 27 -9 33 -20 6 -11 29 -28 51 -36 36 -15 39 -19 34 -48
-2 -17 -9 -64 -15 -104 -6 -41 -18 -88 -28 -104 -9 -17 -23 -41 -30 -54 -13
-25 -32 -32 -32 -13 0 6 -15 9 -35 8 -19 -2 -39 1 -44 6 -7 7 -8 81 -4 202 6
192 6 192 27 177 11 -7 31 -14 43 -14z m574 -11 c-17 -47 -59 -86 -106 -99
-51 -14 -118 -7 -154 17 -19 12 -25 13 -32 2 -14 -23 -23 19 -11 47 14 29 66
36 55 8 -7 -18 -7 -18 80 4 32 9 36 8 26 -4 -32 -38 79 5 115 45 24 26 40 14
27 -20z m2203 -41 c3 -40 7 -129 9 -198 l2 -125 -38 3 c-21 2 -45 -3 -54 -9
-12 -10 -16 -10 -23 1 -5 8 -6 18 -4 22 3 4 1 8 -4 8 -10 0 -28 79 -37 165 -3
33 -9 75 -12 93 -5 29 -2 33 25 43 16 6 32 19 35 30 3 12 14 19 29 19 12 0 30
5 38 10 26 17 28 12 34 -62z m-554 22 c0 -5 -5 -10 -11 -10 -5 0 -7 5 -4 10 3
6 8 10 11 10 2 0 4 -4 4 -10z m4 -54 c-6 -16 -24 -23 -24 -8 0 10 22 33 27 28
2 -2 1 -11 -3 -20z m-1613 -119 c-7 -7 -22 -5 -48 5 -21 9 -53 22 -71 28 -18
7 -31 14 -29 16 5 6 99 -25 114 -37 7 -7 16 -10 19 -7 7 7 -39 36 -71 44 l-26
6 33 21 c18 11 41 21 50 22 10 1 21 5 25 9 5 4 9 -16 11 -45 2 -28 -1 -56 -7
-62z m-416 33 c3 -5 1 -10 -4 -10 -6 0 -11 5 -11 10 0 6 2 10 4 10 3 0 8 -4
11 -10z m295 -26 l45 -23 -38 -1 c-23 0 -36 -4 -32 -10 11 -17 -5 -11 -40 16
-18 14 -36 32 -39 40 -5 13 0 14 27 9 17 -4 52 -18 77 -31z m2030 26 c0 -5 -5
-10 -11 -10 -5 0 -7 5 -4 10 3 6 8 10 11 10 2 0 4 -4 4 -10z m54 -26 c3 -9 4
-19 1 -24 -13 -21 80 -227 140 -311 l34 -47 -21 -19 c-20 -18 -21 -18 -14 5 6
17 3 22 -9 22 -12 0 -16 -7 -13 -27 3 -23 -7 -33 -87 -88 -190 -129 -527 -249
-861 -307 -188 -32 -570 -32 -758 0 -228 39 -423 96 -618 179 -175 74 -358
189 -358 227 0 12 -5 16 -15 13 -8 -4 1 15 20 42 49 67 95 170 108 241 6 33
15 60 19 60 5 0 8 9 8 20 0 23 4 24 31 9 15 -7 24 -7 34 1 10 8 16 7 23 -6 13
-23 74 -44 157 -54 39 -4 79 -11 89 -16 14 -5 17 -4 12 4 -9 15 20 16 61 2 22
-8 33 -21 41 -49 13 -43 32 -54 126 -76 78 -19 272 -19 368 -1 95 17 419 15
463 -4 52 -23 231 -25 306 -4 35 10 82 17 103 17 26 -1 74 14 140 42 84 36
103 41 116 30 29 -24 56 -26 104 -5 28 13 55 35 69 55 22 34 62 51 74 32 4 -6
10 -4 17 5 10 14 64 47 77 48 4 0 10 -7 13 -16z m-194 -19 c-7 -9 -15 -13 -18
-10 -3 2 1 11 8 20 7 9 15 13 18 10 3 -2 -1 -11 -8 -20z m-1124 -19 c0 -13 -4
-22 -8 -19 -5 2 -8 0 -8 -6 0 -5 -9 -13 -20 -16 -11 -4 -18 -11 -15 -16 4 -5
1 -9 -5 -9 -6 0 -8 -5 -5 -11 4 -6 -3 -13 -16 -16 -21 -6 -22 -7 -3 -13 30
-11 -74 -30 -186 -35 -64 -3 -82 -1 -55 4 l40 8 -34 2 c-18 0 -63 7 -100 13
-62 12 -64 13 -31 19 l35 6 -45 8 c-40 8 -42 10 -20 16 24 7 24 7 -5 8 -23 1
-27 3 -15 11 12 8 12 10 -5 11 -60 3 47 17 180 23 244 12 275 15 293 25 26 15
30 13 28 -13z m270 -81 c26 -14 39 -25 29 -25 -17 0 -85 37 -85 46 0 7 8 4 56
-21z"/>
<path d="M1865 3590 c-23 -26 -8 -26 25 0 18 14 21 20 9 20 -9 0 -24 -9 -34
-20z"/>
<path d="M3042 2460 c0 -14 2 -19 5 -12 2 6 2 18 0 25 -3 6 -5 1 -5 -13z"/>
<path d="M3032 2390 c0 -14 2 -19 5 -12 2 6 2 18 0 25 -3 6 -5 1 -5 -13z"/>
<path d="M1441 2394 c0 -11 3 -14 6 -6 3 7 2 16 -1 19 -3 4 -6 -2 -5 -13z"/>
<path d="M1451 2325 c0 -23 -6 -46 -13 -53 -7 -7 -8 -12 -2 -12 18 0 31 43 23
75 -6 28 -7 28 -8 -10z"/>
<path d="M1261 2324 c0 -11 3 -14 6 -6 3 7 2 16 -1 19 -3 4 -6 -2 -5 -13z"/>
<path d="M1412 2270 c0 -14 2 -19 5 -12 2 6 2 18 0 25 -3 6 -5 1 -5 -13z"/>
<path d="M1554 2178 l-19 -21 30 18 c41 26 40 25 23 25 -8 0 -23 -10 -34 -22z"/>
<path d="M1665 2160 c-3 -5 1 -10 10 -10 9 0 13 5 10 10 -3 6 -8 10 -10 10 -2
0 -7 -4 -10 -10z"/>
<path d="M1808 2153 c7 -3 16 -2 19 1 4 3 -2 6 -13 5 -11 0 -14 -3 -6 -6z"/>
<path d="M1320 2103 c0 -5 23 -6 51 -4 36 2 54 -1 60 -10 6 -10 9 -11 9 -1 0
8 16 12 46 12 37 0 45 -3 40 -15 -3 -8 -1 -15 3 -15 5 0 12 7 15 16 5 13 17
15 64 11 38 -4 47 -3 27 2 -38 11 -315 14 -315 4z"/>
<path d="M1688 2083 c7 -3 16 -2 19 1 4 3 -2 6 -13 5 -11 0 -14 -3 -6 -6z"/>
<path d="M1520 2055 c-25 -7 -37 -13 -27 -14 15 -1 17 -7 12 -35 -4 -18 -3
-36 2 -39 13 -8 55 22 48 33 -3 5 -3 20 1 34 5 22 12 25 62 29 l57 3 -55 1
c-30 1 -75 -5 -100 -12z m11 -41 c-9 -28 -9 -29 -10 -3 -1 14 2 29 6 32 11 12
13 2 4 -29z"/>
<path d="M1816 2055 c-3 -8 -1 -15 4 -15 6 0 10 7 10 15 0 8 -2 15 -4 15 -2 0
-6 -7 -10 -15z"/>
<path d="M1310 2045 c0 -5 5 -17 10 -25 5 -8 10 -10 10 -5 0 6 -5 17 -10 25
-5 8 -10 11 -10 5z"/>
<path d="M1290 2020 c0 -11 4 -20 9 -20 5 0 7 9 4 20 -3 11 -7 20 -9 20 -2 0
-4 -9 -4 -20z"/>
<path d="M1412 2027 c-25 -8 -31 -14 -26 -26 7 -15 11 -46 13 -93 1 -10 5 -18
10 -18 12 0 6 72 -8 98 -10 18 -6 22 32 35 47 17 30 21 -21 4z"/>
<path d="M1334 2002 c-7 -5 -6 -15 4 -32 l13 -25 -4 27 c-3 19 1 28 12 31 13
4 13 5 1 6 -8 0 -20 -3 -26 -7z"/>
<path d="M1476 1994 c-9 -24 -7 -54 4 -54 6 0 10 16 10 35 0 38 -4 44 -14 19z"/>
<path d="M1605 2000 c-3 -6 1 -7 9 -4 18 7 21 14 7 14 -6 0 -13 -4 -16 -10z"/>
<path d="M2134 2475 c-10 -8 -14 -14 -9 -15 15 0 40 18 34 24 -3 3 -14 -1 -25
-9z"/>
<path d="M2166 2454 c-3 -9 -6 -27 -6 -41 0 -22 2 -24 16 -13 29 25 34 45 14
58 -14 9 -19 8 -24 -4z"/>
<path d="M1877 2409 c3 -24 7 -46 9 -48 9 -10 3 65 -5 78 -6 10 -8 -1 -4 -30z"/>
<path d="M1867 2335 c-4 -8 -21 -24 -39 -35 -18 -11 -27 -20 -21 -20 17 0 80
57 72 65 -4 3 -9 -1 -12 -10z"/>
<path d="M2251 2396 c-18 -21 -25 -81 -13 -102 9 -15 10 -12 5 18 -3 23 0 47
10 67 17 34 16 39 -2 17z"/>
<path d="M2267 2249 c12 -12 24 -21 27 -18 2 2 -8 13 -22 23 l-27 19 22 -24z"/>
<path d="M2636 2255 c-3 -9 -6 -22 -5 -28 0 -7 5 -1 10 12 5 13 8 26 5 28 -2
2 -6 -3 -10 -12z"/>
<path d="M2611 2184 c-6 -15 -9 -35 -6 -45 11 -33 20 -21 20 26 0 25 0 45 -1
45 0 0 -6 -12 -13 -26z"/>
<path d="M2641 2124 c0 -11 3 -14 6 -6 3 7 2 16 -1 19 -3 4 -6 -2 -5 -13z"/>
<path d="M2498 2123 c7 -3 16 -2 19 1 4 3 -2 6 -13 5 -11 0 -14 -3 -6 -6z"/>
<path d="M2350 2100 c0 -5 5 -10 11 -10 5 0 7 5 4 10 -3 6 -8 10 -11 10 -2 0
-4 -4 -4 -10z"/>
<path d="M2464 2081 c21 -23 26 -26 26 -11 0 5 -10 15 -22 21 -23 12 -23 12
-4 -10z"/>
<path d="M2676 2075 c-3 -9 -6 -22 -5 -28 0 -7 5 -1 10 12 5 13 8 26 5 28 -2
2 -6 -3 -10 -12z"/>
<path d="M2430 2061 c0 -4 12 -14 28 -22 15 -7 30 -15 33 -16 3 -2 6 3 6 12 0
8 -3 13 -5 10 -3 -3 -10 -1 -16 4 -18 13 -46 21 -46 12z"/>
<path d="M2222 2004 c3 -3 64 -5 136 -5 128 1 130 1 124 -21 -3 -14 1 -26 13
-34 29 -21 34 -17 28 22 -6 35 -5 36 15 25 17 -9 20 -17 15 -41 -3 -17 -2 -30
1 -30 17 0 38 32 33 50 -4 15 0 20 16 21 12 1 -3 5 -33 9 -64 9 -356 13 -348
4z"/>
<path d="M2650 1986 c0 -2 13 -6 29 -8 17 -2 28 -1 25 4 -5 8 -54 12 -54 4z"/>
<path d="M2226 1964 c-7 -17 0 -34 14 -34 4 0 7 11 6 25 -1 28 -11 33 -20 9z"/>
<path d="M2293 1973 c9 -2 23 -2 30 0 6 3 -1 5 -18 5 -16 0 -22 -2 -12 -5z"/>
<path d="M2348 1963 c7 -3 16 -2 19 1 4 3 -2 6 -13 5 -11 0 -14 -3 -6 -6z"/>
<path d="M2420 1945 c46 -18 64 -17 25 0 -16 8 -37 14 -45 14 -8 0 1 -7 20
-14z"/>
<path d="M2691 1934 c0 -11 3 -14 6 -6 3 7 2 16 -1 19 -3 4 -6 -2 -5 -13z"/>
<path d="M2265 1930 c3 -5 8 -10 11 -10 2 0 4 5 4 10 0 6 -5 10 -11 10 -5 0
-7 -4 -4 -10z"/>
<path d="M2607 1926 c-4 -10 -5 -21 -2 -24 9 -9 17 6 13 25 -3 17 -4 17 -11
-1z"/>
<path d="M2315 1910 c10 -11 20 -20 23 -20 3 0 -3 9 -13 20 -10 11 -20 20 -23
20 -3 0 3 -9 13 -20z"/>
<path d="M2480 1904 c0 -14 -4 -34 -10 -44 -8 -14 -5 -21 15 -34 24 -16 24
-15 34 22 15 51 14 69 -5 76 -27 10 -34 7 -34 -20z"/>
<path d="M2655 1910 c-4 -12 -5 -24 -2 -27 3 -2 8 5 12 17 4 12 5 24 2 27 -3
2 -8 -5 -12 -17z"/>
<path d="M3299 1813 c-13 -16 -12 -17 4 -4 16 13 21 21 13 21 -2 0 -10 -8 -17
-17z"/>
<path d="M1446 1802 c-3 -5 1 -17 8 -27 10 -14 15 -15 21 -5 6 9 4 11 -5 5
-10 -6 -12 -4 -7 8 7 17 -8 33 -17 19z"/>
<path d="M1710 1760 c0 -5 5 -10 11 -10 5 0 7 5 4 10 -3 6 -8 10 -11 10 -2 0
-4 -4 -4 -10z"/>
<path d="M1785 1720 c-3 -5 -1 -10 4 -10 6 0 11 5 11 10 0 6 -2 10 -4 10 -3 0
-8 -4 -11 -10z"/>
<path d="M1747 1673 c-10 -9 -9 -23 1 -23 5 0 9 7 9 15 0 17 -1 18 -10 8z"/>
<path d="M1296 1663 c-11 -11 -6 -23 9 -23 8 0 15 4 15 9 0 13 -16 22 -24 14z"/>
<path d="M1700 1660 c0 -5 5 -10 10 -10 6 0 10 5 10 10 0 6 -4 10 -10 10 -5 0
-10 -4 -10 -10z"/>
<path d="M1336 1651 c-4 -5 -2 -12 3 -15 5 -4 12 -2 15 3 4 5 2 12 -3 15 -5 4
-12 2 -15 -3z"/>
<path d="M1730 1630 c0 -5 5 -10 10 -10 6 0 10 5 10 10 0 6 -4 10 -10 10 -5 0
-10 -4 -10 -10z"/>
<path d="M1645 1589 c-4 -11 -4 -23 -1 -26 3 -4 6 1 6 10 0 10 5 17 10 17 6 0
10 5 10 10 0 18 -19 10 -25 -11z"/>
<path d="M1545 1590 c-4 -6 -11 -7 -17 -4 -6 4 -8 2 -5 -4 4 -5 16 -8 27 -5
11 3 17 9 14 14 -7 12 -11 11 -19 -1z"/>
<path d="M1855 1740 c3 -5 8 -10 11 -10 2 0 4 5 4 10 0 6 -5 10 -11 10 -5 0
-7 -4 -4 -10z"/>
<path d="M2425 1467 c-10 -23 -2 -72 19 -117 l16 -35 -6 40 c-19 125 -20 130
-29 112z"/>
<path d="M2567 1325 c5 -23 29 -52 37 -44 7 7 -22 69 -32 69 -5 0 -7 -11 -5
-25z"/>
<path d="M2170 1255 c0 -2 14 -11 30 -20 33 -17 40 -10 13 11 -18 13 -43 19
-43 9z"/>
<path d="M2640 1230 c6 -11 15 -20 20 -20 14 0 1 28 -16 34 -12 4 -12 2 -4
-14z"/>
<path d="M2570 1232 c0 -5 7 -16 16 -23 14 -12 16 -11 13 5 -4 20 -29 35 -29
18z"/>
<path d="M2680 1196 c0 -2 8 -10 18 -17 15 -13 16 -12 3 4 -13 16 -21 21 -21
13z"/>
<path d="M2199 1142 c20 -38 84 -72 96 -51 3 4 -5 11 -19 15 -13 3 -34 17 -47
30 -26 28 -44 32 -30 6z"/>
<path d="M2274 1131 c3 -5 15 -11 26 -14 17 -4 19 -3 9 9 -12 15 -44 20 -35 5z"/>
<path d="M2699 1064 c12 -15 21 -33 21 -41 0 -8 5 -11 10 -8 16 10 12 40 -8
58 -30 27 -46 20 -23 -9z"/>
<path d="M2632 1068 c2 -6 10 -14 16 -16 7 -2 10 2 6 12 -7 18 -28 22 -22 4z"/>
<path d="M2120 1000 c8 -5 26 -10 40 -10 20 0 22 2 10 10 -8 5 -26 10 -40 10
-20 0 -22 -2 -10 -10z"/>
<path d="M2670 960 c0 -5 9 -10 20 -10 11 0 20 5 20 10 0 6 -9 10 -20 10 -11
0 -20 -4 -20 -10z"/>
<path d="M2410 950 c8 -5 22 -10 30 -10 13 0 13 1 0 10 -8 5 -22 10 -30 10
-13 0 -13 -1 0 -10z"/>
<path d="M2258 913 c7 -3 16 -2 19 1 4 3 -2 6 -13 5 -11 0 -14 -3 -6 -6z"/>
<path d="M1590 1510 c0 -5 5 -10 11 -10 5 0 7 5 4 10 -3 6 -8 10 -11 10 -2 0
-4 -4 -4 -10z"/>
<path d="M1733 1412 c-7 -4 -14 -39 -17 -77 -5 -68 -5 -68 5 -20 5 28 11 59
12 70 3 28 42 32 56 6 6 -11 15 -37 20 -58 l9 -38 1 43 c1 61 -44 101 -86 74z"/>
<path d="M1588 1385 c-9 -19 -9 -71 0 -213 14 -218 15 -229 27 -239 4 -5 5 -1
1 7 -7 13 -6 13 6 0 15 -17 69 -15 80 3 4 7 7 28 7 47 0 19 -3 29 -6 23 -7
-20 -29 -15 -45 10 -35 53 -48 118 -44 221 3 86 2 91 -4 31 l-7 -70 0 90 c0
50 4 96 9 103 7 8 7 12 -1 12 -6 0 -17 -11 -23 -25z"/>
<path d="M1671 1393 c7 -12 15 -20 18 -17 3 2 -3 12 -13 22 -17 16 -18 16 -5
-5z"/>
<path d="M1518 1385 c5 -11 12 -27 15 -35 5 -13 6 -13 6 1 1 8 -6 24 -15 35
-15 19 -15 19 -6 -1z"/>
<path d="M1462 1325 c0 -16 2 -22 5 -12 2 9 2 23 0 30 -3 6 -5 -1 -5 -18z"/>
<path d="M1726 1244 c-11 -119 12 -313 35 -298 5 3 9 0 9 -5 0 -6 7 -11 15
-11 8 0 15 5 15 10 0 6 6 10 14 10 18 0 26 22 26 68 0 34 -1 35 -16 16 -8 -10
-13 -13 -9 -7 4 9 1 11 -9 7 -9 -3 -13 -10 -10 -15 3 -5 -6 -4 -20 2 -29 14
-42 57 -32 111 5 26 4 29 -4 13 -6 -14 -7 12 -3 78 7 115 -1 131 -11 21z"/>
<path d="M1343 1265 c0 -22 2 -30 4 -17 2 12 2 30 0 40 -3 9 -5 -1 -4 -23z"/>
<path d="M1812 1255 c0 -16 2 -22 5 -12 2 9 2 23 0 30 -3 6 -5 -1 -5 -18z"/>
<path d="M1060 1546 c0 -2 7 -9 15 -16 13 -11 14 -10 9 4 -5 14 -24 23 -24 12z"/>
<path d="M1193 1434 c10 -10 -20 -34 -42 -34 -12 0 -21 -3 -21 -7 0 -5 24 -8
54 -8 51 0 71 14 23 16 -20 1 -20 2 3 9 14 4 19 8 12 9 -7 1 -10 6 -7 11 3 6
-2 10 -11 10 -10 0 -15 -3 -11 -6z"/>
<path d="M1028 1273 c7 -3 16 -2 19 1 4 3 -2 6 -13 5 -11 0 -14 -3 -6 -6z"/>
<path d="M1093 1143 c9 -2 23 -2 30 0 6 3 -1 5 -18 5 -16 0 -22 -2 -12 -5z"/>
<path d="M3010 1101 c0 -5 5 -13 10 -16 6 -3 10 -2 10 4 0 5 -4 13 -10 16 -5
3 -10 2 -10 -4z"/>
<path d="M1095 1040 c-8 -13 15 -13 35 0 12 8 11 10 -7 10 -12 0 -25 -4 -28
-10z"/>
<path d="M1230 971 c13 -9 12 -11 -3 -11 -11 0 -17 -6 -14 -12 2 -7 10 -13 18
-13 19 0 18 37 -1 42 -13 4 -13 3 0 -6z"/>
<path d="M3046 729 c-30 -24 -34 -43 -7 -34 27 8 89 -98 71 -120 -18 -22 -2
-18 47 10 46 28 56 41 23 32 -16 -4 -26 5 -47 41 -15 26 -34 57 -44 69 l-17
23 -26 -21z"/>
<path d="M934 723 c5 -18 -52 -130 -67 -131 -24 -1 -14 -13 33 -37 28 -14 63
-25 77 -23 34 4 52 32 37 55 -9 14 -7 20 10 28 28 14 33 53 9 71 -21 16 -89
54 -98 54 -4 0 -4 -8 -1 -17z m76 -62 c0 -5 -7 -14 -15 -21 -21 -17 -39 1 -30
29 5 17 10 19 26 11 10 -6 19 -14 19 -19z m-41 -55 c12 -14 5 -46 -9 -46 -35
0 -50 26 -28 48 15 15 23 15 37 -2z"/>
<path d="M2932 678 c-31 -31 6 -96 47 -83 28 9 36 41 17 70 -18 27 -45 32 -64
13z m48 -56 c0 -12 -3 -12 -15 -2 -8 7 -15 22 -15 34 1 21 1 21 15 2 8 -11 15
-26 15 -34z"/>
<path d="M1083 646 c7 -17 -48 -136 -63 -136 -26 0 -5 -17 48 -38 67 -26 82
-27 82 -8 0 8 -15 17 -36 21 -33 6 -35 8 -29 33 9 36 11 37 41 23 16 -7 31 -8
36 -3 5 5 -3 14 -21 22 -35 14 -35 14 -20 41 10 20 10 20 44 0 18 -10 36 -17
39 -14 16 17 0 32 -53 52 -69 25 -75 25 -68 7z"/>
<path d="M2862 649 c-13 -5 -20 -13 -17 -19 4 -6 10 -8 14 -6 4 3 15 -15 24
-40 9 -24 13 -44 10 -44 -3 0 -32 16 -64 36 -40 24 -65 33 -79 29 -22 -7 -27
-25 -7 -25 15 0 68 -126 60 -145 -6 -18 -2 -18 31 -4 14 7 23 16 20 21 -3 4
-9 6 -13 3 -5 -2 -18 18 -30 46 l-21 51 23 -14 c140 -91 157 -89 112 14 -19
43 -32 84 -29 93 7 17 -1 18 -34 4z"/>
<path d="M1225 589 c10 -16 -36 -138 -54 -142 -23 -5 57 -38 98 -40 20 -1 36
3 38 11 3 8 -5 12 -24 12 -40 0 -53 12 -46 39 5 21 10 22 44 17 47 -7 52 8 8
23 -23 8 -30 15 -25 27 3 8 6 20 6 25 0 5 16 2 36 -6 34 -14 54 -13 54 4 0 8
-98 41 -124 41 -9 0 -14 -5 -11 -11z"/>
<path d="M2983 584 c-30 -13 -49 -52 -20 -41 6 2 28 10 49 17 23 9 34 18 31
27 -6 16 -19 16 -60 -3z"/>
<path d="M2623 563 c-22 -4 -33 -23 -14 -23 8 0 41 -81 41 -99 0 -3 -22 19
-48 48 -44 49 -51 53 -80 46 -29 -6 -46 -25 -22 -25 14 0 53 -134 40 -138 -22
-8 1 -18 30 -14 17 2 30 10 30 19 0 8 -4 12 -8 9 -5 -3 -16 17 -24 44 l-16 49
48 -50 c42 -44 76 -60 92 -43 3 3 -5 40 -18 82 -13 44 -19 78 -14 80 6 2 10 8
10 13 0 9 -8 10 -47 2z"/>
<path d="M1374 544 c9 -24 -24 -134 -40 -134 -28 0 -13 -19 23 -29 37 -10 57
-6 36 7 -14 10 3 55 19 50 7 -3 14 -21 16 -40 2 -27 9 -37 24 -41 34 -9 38 1
18 48 -15 34 -16 45 -6 45 17 0 46 33 46 52 0 18 -48 43 -104 53 -34 6 -38 4
-32 -11z m79 -36 c7 -21 -4 -38 -25 -38 -14 0 -18 5 -14 16 3 9 6 20 6 25 0
14 28 11 33 -3z"/>
<path d="M2355 498 c-25 -19 -27 -26 -23 -76 5 -61 30 -92 75 -92 38 0 81 30
88 61 9 38 -12 107 -35 119 -31 16 -75 12 -105 -12z m86 -35 c5 -15 9 -43 7
-62 -3 -31 -7 -36 -28 -36 -20 0 -27 8 -38 40 -18 53 -9 85 23 85 18 0 28 -8
36 -27z"/>
<path d="M1606 491 c-27 -30 -16 -62 27 -85 20 -11 37 -25 37 -33 0 -16 -61
-18 -78 -1 -9 9 -13 7 -18 -6 -9 -23 11 -36 56 -36 83 0 108 69 38 103 -47 23
-51 52 -8 49 3 0 18 -4 33 -7 20 -6 27 -4 27 8 0 32 -87 38 -114 8z"/>
<path d="M1740 488 c0 -13 8 -18 31 -18 24 0 29 -4 26 -17 -3 -10 -8 -39 -12
-65 -4 -33 -11 -48 -21 -48 -8 0 -12 -4 -9 -10 3 -5 24 -10 46 -10 21 0 39 5
39 10 0 6 -4 10 -8 10 -8 0 -7 27 4 98 5 33 7 34 40 28 25 -5 34 -3 34 7 0 9
-25 16 -85 23 -78 8 -85 8 -85 -8z"/>
<path d="M2040 486 c0 -11 9 -16 30 -16 l30 0 0 -70 c0 -40 -4 -70 -10 -70 -5
0 -10 -4 -10 -10 0 -13 77 -13 84 -1 4 5 2 11 -3 13 -4 1 -12 34 -16 72 l-7
69 36 -6 c27 -4 36 -2 36 9 0 11 -16 14 -69 14 -38 0 -76 3 -85 6 -11 4 -16 1
-16 -10z"/>
<path d="M2220 491 c0 -5 5 -11 12 -13 8 -3 12 -31 12 -81 l1 -77 32 0 c31 0
53 15 33 22 -17 5 -33 127 -19 144 9 12 4 14 -30 14 -22 0 -41 -4 -41 -9z"/>
<path d="M1915 418 c-15 -40 -32 -77 -36 -82 -16 -18 -9 -26 22 -26 24 0 30 4
25 15 -10 27 5 45 36 45 29 0 30 -2 25 -30 -6 -29 -6 -30 33 -30 36 0 54 13
31 22 -5 2 -19 37 -32 78 -21 66 -27 75 -50 78 -23 3 -28 -3 -54 -70z m55 13
c0 -5 3 -16 6 -25 4 -12 0 -16 -16 -16 -16 0 -20 4 -16 16 3 9 6 20 6 25 0 5
5 9 10 9 6 0 10 -4 10 -9z"/>
<path d="M3195 420 c-3 -5 -1 -10 4 -10 6 0 11 5 11 10 0 6 -2 10 -4 10 -3 0
-8 -4 -11 -10z"/>
</g>
</svg>
